<svg xmlns="http://www.w3.org/2000/svg" width="86" height="29" viewBox="0 0 86 29" fill="none">
<path d="M36.6011 15.0429C36.6011 19.1145 33.4425 22.1148 29.5662 22.1148C25.6899 22.1148 22.5312 19.1145 22.5312 15.0429C22.5312 10.9426 25.6899 7.97101 29.5662 7.97101C33.4425 7.97101 36.6011 10.9426 36.6011 15.0429ZM33.5215 15.0429C33.5215 12.4985 31.6909 10.7577 29.5662 10.7577C27.4415 10.7577 25.6108 12.4985 25.6108 15.0429C25.6108 17.5617 27.4415 19.3281 29.5662 19.3281C31.6909 19.3281 33.5215 17.5585 33.5215 15.0429Z" fill="#26114A"/>
<path d="M51.773 15.0429C51.773 19.1145 48.6144 22.1148 44.7381 22.1148C40.8617 22.1148 37.7031 19.1145 37.7031 15.0429C37.7031 10.9458 40.8617 7.97101 44.7381 7.97101C48.6144 7.97101 51.773 10.9426 51.773 15.0429ZM48.6934 15.0429C48.6934 12.4985 46.8628 10.7577 44.7381 10.7577C42.6133 10.7577 40.7827 12.4985 40.7827 15.0429C40.7827 17.5617 42.6133 19.3281 44.7381 19.3281C46.8628 19.3281 48.6934 17.5585 48.6934 15.0429Z" fill="#26114A"/>
<path d="M66.3188 8.39825V21.0945C66.3188 26.3171 63.2646 28.4501 59.6538 28.4501C56.2549 28.4501 54.2093 26.1577 53.4378 24.2829L56.119 23.1574C56.5964 24.3084 57.7663 25.6667 59.6507 25.6667C61.9619 25.6667 63.3942 24.2287 63.3942 21.5217V20.5046H63.2867C62.5974 21.3623 61.2695 22.1116 59.5938 22.1116C56.0874 22.1116 52.875 19.0316 52.875 15.0684C52.875 11.0765 56.0874 7.97101 59.5938 7.97101C61.2663 7.97101 62.5943 8.72028 63.2867 9.55246H63.3942V8.40144H66.3188V8.39825ZM63.6124 15.0684C63.6124 12.5783 61.9651 10.7577 59.8688 10.7577C57.7441 10.7577 55.964 12.5783 55.964 15.0684C55.964 17.533 57.7441 19.3281 59.8688 19.3281C61.9651 19.3281 63.6124 17.533 63.6124 15.0684Z" fill="#26114A"/>
<path d="M71.1365 0.956543V21.6812H68.1328V0.956543H71.1365Z" fill="#26114A"/>
<path d="M82.8414 17.3704L85.2317 18.9773C84.4602 20.1284 82.6011 22.1115 79.3887 22.1115C75.4049 22.1115 72.4297 19.006 72.4297 15.0397C72.4297 10.8341 75.4302 7.96777 79.0441 7.96777C82.6833 7.96777 84.4634 10.8884 85.0451 12.4666L85.3645 13.2701L75.9898 17.1855C76.7076 18.6043 77.8237 19.3281 79.3887 19.3281C80.957 19.3281 82.0446 18.5501 82.8414 17.3704ZM75.484 14.826L81.7506 12.202C81.4059 11.3188 80.3689 10.7034 79.1484 10.7034C77.5834 10.7034 75.4049 12.0968 75.484 14.826Z" fill="#26114A"/>
<path d="M11.1612 13.2032V10.2029H21.1872C21.2852 10.7258 21.3358 11.3444 21.3358 12.014C21.3358 14.265 20.7256 17.0485 18.759 19.0316C16.8461 21.0403 14.402 22.1116 11.1644 22.1116C5.16336 22.1116 0.117188 17.1824 0.117188 11.1308C0.117188 5.07918 5.16336 0.149902 11.1644 0.149902C14.4842 0.149902 16.8492 1.46353 18.6262 3.1757L16.5267 5.2928C15.2526 4.08758 13.5262 3.15019 11.1612 3.15019C6.77903 3.15019 3.35167 6.71164 3.35167 11.1308C3.35167 15.5499 6.77903 19.1114 11.1612 19.1114C14.0037 19.1114 15.6225 17.9603 16.6595 16.9145C17.5006 16.0664 18.0539 14.8548 18.272 13.2L11.1612 13.2032Z" fill="#26114A"/>
</svg>